<?xml version="1.0" encoding="utf-8"?>
<!-- Generator: Adobe Illustrator 19.2.0, SVG Export Plug-In . SVG Version: 6.00 Build 0)  -->
<svg version="1.1" id="Layer_1" xmlns="http://www.w3.org/2000/svg" xmlns:xlink="http://www.w3.org/1999/xlink" x="0px" y="0px"
	 width="24px" height="24px" viewBox="0 0 24 24" style="enable-background:new 0 0 24 24;" xml:space="preserve">
<style type="text/css">
	.st0{fill:#4C4C4C;}
</style>
<g>
	<g>
		<path class="st0" d="M21.4,1.9V0h-0.9v1.9h-3.2V0h-0.9v1.9H13V0h-0.9v1.9H8.4V0H7.5v1.9H4V0H3.1v1.9H0V24h24V1.9H21.4z M0.8,2.7
			h2.3v2H4v-2h3.5v2h0.9v-2h3.7v2H13v-2h3.5v2h0.9v-2h3.2v2h0.9v-2h1.8v4.1H0.8V2.7z M23.2,23.2H0.8V7.6h22.4V23.2z M18.2,12.2
			l-0.6-0.6l-6.5,5.8l-3.8-3.8l-0.6,0.6l4.4,4.4L18.2,12.2z"/>
	</g>
</g>
</svg>