<svg xmlns="http://www.w3.org/2000/svg" viewBox="0 0 184.388 184.388">
  <defs>
    <style>
      .cls-1 {
        fill: #a2d4de;
      }

      .cls-2 {
        fill: #330602;
      }

      .cls-3 {
        fill: #451613;
      }

      .cls-4 {
        fill: #ea444e;
      }
    </style>
  </defs>
  <g id="Group_1" data-name="Group 1" transform="translate(-586 -158)">
    <circle id="Ellipse_16" data-name="Ellipse 16" class="cls-1" cx="92.194" cy="92.194" r="92.194" transform="translate(586 158)"/>
    <path id="Path_218" data-name="Path 218" class="cls-2" d="M429.7,136a27.881,27.881,0,0,1,4.3,2.48,13.17,13.17,0,0,1,4.09,4.39,6.67,6.67,0,0,1,0,6.55,9.719,9.719,0,0,1-2.35,2.83,43.19,43.19,0,0,1-14,7.92A51.73,51.73,0,0,1,405,162.89a49.89,49.89,0,1,1,44-26.39,2.829,2.829,0,1,1-5-2.65,44.23,44.23,0,1,0-39,23.38,46,46,0,0,0,14.92-2.41A37.54,37.54,0,0,0,432.1,148a4.44,4.44,0,0,0,1-1.2,1.37,1.37,0,0,0,0-1.3,7.86,7.86,0,0,0-2.39-2.41,20.14,20.14,0,0,0-2.73-1.64Z" transform="translate(272.66 136.211)"/>
    <path id="Path_219" data-name="Path 219" class="cls-3" d="M428,141.42a10.26,10.26,0,0,1-.76,1.52c-1.32,2.13-1.73,3.7-9.44,4.41-8.18.75-23.14-8.1-32.2-17.7s-13-18.44-14.82-24.52,1-13.43,3.31-14.39,7.24-2.47,9.49-3.09c2.76-.77,5.33,3.41,7.35,8.53s1.17,9.91-.11,10.34a6.081,6.081,0,0,0-3.89,2.72c-1,2,6,9.22,9.23,12.1s8.84,9.59,11.51,9.48,2.88-1.92,3.73-3.73,6.08-1.92,11.62.54,7.78,4.9,7,7.24c-.11.35-.23.73-.34,1.13Z" transform="translate(272.66 136.211)"/>
    <path id="Path_220" data-name="Path 220" class="cls-4" d="M411,111.63v3.89H398.51v-3.26q5.57-9.09,6.61-11.25a8.48,8.48,0,0,0,1.05-3.37,2.4,2.4,0,0,0-.32-1.39,1.291,1.291,0,0,0-2,.05,4.329,4.329,0,0,0-.31,2v2.16h-5.1v-.83a18.262,18.262,0,0,1,.2-3,5.23,5.23,0,0,1,1-2.17,4.92,4.92,0,0,1,2-1.62,7.43,7.43,0,0,1,3-.55A7.11,7.11,0,0,1,409.79,94a5.68,5.68,0,0,1,1.74,4.26,10.139,10.139,0,0,1-1,4.14,85,85,0,0,1-5.76,9.26Z" transform="translate(272.66 136.211)"/>
    <path id="Path_221" data-name="Path 221" class="cls-4" d="M424.25,92.73v14.89h1.62v3.88h-1.62v4h-5.68v-4h-6.76v-3.88l4.91-14.89Zm-5.68,14.89v-9.7l-2.51,9.7Z" transform="translate(272.66 136.211)"/>
    <path id="Path_222" data-name="Path 222" class="cls-4" d="M432.74,92.73v5.13a5.141,5.141,0,0,1,1.58-1,4.84,4.84,0,0,1,1.83-.34,4.2,4.2,0,0,1,2.54.76A3.07,3.07,0,0,1,440,99a19.145,19.145,0,0,1,.23,3.63v12.88h-5.69V102.37a8.133,8.133,0,0,0-.16-2.1.68.68,0,0,0-.72-.46.7.7,0,0,0-.71.48,6.431,6.431,0,0,0-.18,1.9v13.33h-5.69V92.73Z" transform="translate(272.66 136.211)"/>
    <path id="Path_218-2" data-name="Path 218" class="cls-2" d="M429.7,136a27.881,27.881,0,0,1,4.3,2.48,13.17,13.17,0,0,1,4.09,4.39,6.67,6.67,0,0,1,0,6.55,9.719,9.719,0,0,1-2.35,2.83,43.19,43.19,0,0,1-14,7.92A51.73,51.73,0,0,1,405,162.89a49.89,49.89,0,1,1,44-26.39,2.829,2.829,0,1,1-5-2.65,44.23,44.23,0,1,0-39,23.38,46,46,0,0,0,14.92-2.41A37.54,37.54,0,0,0,432.1,148a4.44,4.44,0,0,0,1-1.2,1.37,1.37,0,0,0,0-1.3,7.86,7.86,0,0,0-2.39-2.41,20.14,20.14,0,0,0-2.73-1.64Z" transform="translate(272.66 136.211)"/>
    <path id="Path_219-2" data-name="Path 219" class="cls-3" d="M428,141.42a10.26,10.26,0,0,1-.76,1.52c-1.32,2.13-1.73,3.7-9.44,4.41-8.18.75-23.14-8.1-32.2-17.7s-13-18.44-14.82-24.52,1-13.43,3.31-14.39,7.24-2.47,9.49-3.09c2.76-.77,5.33,3.41,7.35,8.53s1.17,9.91-.11,10.34a6.081,6.081,0,0,0-3.89,2.72c-1,2,6,9.22,9.23,12.1s8.84,9.59,11.51,9.48,2.88-1.92,3.73-3.73,6.08-1.92,11.62.54,7.78,4.9,7,7.24c-.11.35-.23.73-.34,1.13Z" transform="translate(272.66 136.211)"/>
    <path id="Path_220-2" data-name="Path 220" class="cls-4" d="M411,111.63v3.89H398.51v-3.26q5.57-9.09,6.61-11.25a8.48,8.48,0,0,0,1.05-3.37,2.4,2.4,0,0,0-.32-1.39,1.291,1.291,0,0,0-2,.05,4.329,4.329,0,0,0-.31,2v2.16h-5.1v-.83a18.262,18.262,0,0,1,.2-3,5.23,5.23,0,0,1,1-2.17,4.92,4.92,0,0,1,2-1.62,7.43,7.43,0,0,1,3-.55A7.11,7.11,0,0,1,409.79,94a5.68,5.68,0,0,1,1.74,4.26,10.139,10.139,0,0,1-1,4.14,85,85,0,0,1-5.76,9.26Z" transform="translate(272.66 136.211)"/>
    <path id="Path_221-2" data-name="Path 221" class="cls-4" d="M424.25,92.73v14.89h1.62v3.88h-1.62v4h-5.68v-4h-6.76v-3.88l4.91-14.89Zm-5.68,14.89v-9.7l-2.51,9.7Z" transform="translate(272.66 136.211)"/>
    <path id="Path_222-2" data-name="Path 222" class="cls-4" d="M432.74,92.73v5.13a5.141,5.141,0,0,1,1.58-1,4.84,4.84,0,0,1,1.83-.34,4.2,4.2,0,0,1,2.54.76A3.07,3.07,0,0,1,440,99a19.145,19.145,0,0,1,.23,3.63v12.88h-5.69V102.37a8.133,8.133,0,0,0-.16-2.1.68.68,0,0,0-.72-.46.7.7,0,0,0-.71.48,6.431,6.431,0,0,0-.18,1.9v13.33h-5.69V92.73Z" transform="translate(272.66 136.211)"/>
  </g>
</svg>
