<svg xmlns="http://www.w3.org/2000/svg" viewBox="0 0 177.701 177.701">
  <defs>
    <style>
      .cls-1 {
        fill: #b1c635;
      }

      .cls-2 {
        fill: #797d2b;
      }

      .cls-3 {
        fill: #9cbcab;
      }

      .cls-4, .cls-7 {
        fill: #fff;
      }

      .cls-5 {
        fill: #ea444e;
      }

      .cls-5, .cls-6, .cls-7, .cls-8 {
        fill-rule: evenodd;
      }

      .cls-6 {
        fill: #b3d8c2;
      }

      .cls-8 {
        fill: #451613;
      }

      .cls-9 {
        fill: #f9b59e;
      }
    </style>
  </defs>
  <g id="Group_3" data-name="Group 3" transform="translate(-566 -630)">
    <ellipse id="Ellipse_128" data-name="Ellipse 128" class="cls-1" cx="88.851" cy="88.851" rx="88.851" ry="88.851" transform="translate(566 630)"/>
    <path id="Path_157" data-name="Path 157" class="cls-2" d="M707.36,428.22c0,1.78-19.72,3.21-44.05,3.21s-44-1.43-44-3.21S639,425,663.31,425,707.36,426.45,707.36,428.22Z" transform="translate(-18.34 331.211)"/>
    <path id="Path_210" data-name="Path 210" class="cls-3" d="M627.24,312.56h42.52a9.87,9.87,0,0,1,9.87,9.87V365a9.87,9.87,0,0,1-9.87,9.87H627.24a9.88,9.88,0,0,1-9.88-9.88V322.44A9.88,9.88,0,0,1,627.24,312.56Z" transform="translate(29 360.751)"/>
    <path id="Path_211" data-name="Path 211" class="cls-4" d="M687.92,354.45h10.13a23.942,23.942,0,0,1,6.33.64A7,7,0,0,1,707.7,357a6.329,6.329,0,0,1,1.5,3,26.468,26.468,0,0,1,.4,5.36v3.37a14,14,0,0,1-.77,5.4,5.24,5.24,0,0,1-2.81,2.61,13.37,13.37,0,0,1-5.34.9H698v15.58H687.92ZM698,361.07v9.84h.73a2.32,2.32,0,0,0,1.93-.68,5,5,0,0,0,.53-2.83v-3.18a3.77,3.77,0,0,0-.61-2.58A4,4,0,0,0,698,361.07Z" transform="translate(-18.34 331.211)"/>
    <path id="Path_212" data-name="Path 212" class="cls-5" d="M697.46,422.48v-2.25H634.08V402.61a4.75,4.75,0,0,1,0-9.5,4.89,4.89,0,0,1,4.79,3.65l7.26-11.38c1.62-2.53,3.76-5.29,7.18-5.29h24.58c4.37,0,5.27,1.78,7.52,5.29l7.26,11.38a4.89,4.89,0,0,1,4.79-3.65,4.75,4.75,0,1,1,0,9.5Z" transform="translate(-18.34 331.211)"/>
    <path id="Path_213" data-name="Path 213" class="cls-6" d="M644.49,397.86h42.09c2.61,0,1.25-2,1.25-2l-5.34-8.36c-1.91-3-2.68-4.5-6.4-4.5H655.16c-2.91,0-4.74,2.36-6.11,4.5l-5.34,8.37S642.36,397.86,644.49,397.86Z" transform="translate(-18.34 331.211)"/>
    <path id="Path_214" data-name="Path 214" class="cls-7" d="M643.71,404.93a5,5,0,1,1-5,5A5,5,0,0,1,643.71,404.93Z" transform="translate(-18.34 331.211)"/>
    <path id="Path_215" data-name="Path 215" class="cls-7" d="M687.83,404.93a5,5,0,1,1-5,5,5,5,0,0,1,5-5Z" transform="translate(-18.34 331.211)"/>
    <path id="Path_216" data-name="Path 216" class="cls-8" d="M697.46,420.23v5.57a3.43,3.43,0,0,1-3.42,3.42H687a3.43,3.43,0,0,1-3.43-3.42v-5.57Zm-49.46,0v5.57a3.43,3.43,0,0,1-3.43,3.42H637.5a3.43,3.43,0,0,1-3.42-3.42v-5.57Z" transform="translate(-18.34 331.211)"/>
    <path id="Path_217" data-name="Path 217" class="cls-9" d="M675.73,412.67H655.81a1.15,1.15,0,0,0-1.26,1v3.23a1.15,1.15,0,0,0,1.26,1h19.92a1.15,1.15,0,0,0,1.26-1v-3.23a1.15,1.15,0,0,0-1.26-1Z" transform="translate(-18.34 331.211)"/>
  </g>
</svg>
