<svg xmlns="http://www.w3.org/2000/svg" viewBox="0 0 184.388 184.388">
  <defs>
    <style>
      .cls-1 {
        fill: #f3ea83;
      }

      .cls-2 {
        fill: #f9ab60;
      }

      .cls-2, .cls-3, .cls-4, .cls-5, .cls-7 {
        fill-rule: evenodd;
      }

      .cls-13, .cls-3 {
        fill: #a6d0ee;
      }

      .cls-4 {
        fill: #b1d8f2;
      }

      .cls-12, .cls-5 {
        fill: #d1e8f8;
      }

      .cls-6 {
        fill: #4b4a4b;
      }

      .cls-11, .cls-7 {
        fill: #b17b48;
      }

      .cls-8 {
        fill: #996b39;
      }

      .cls-9 {
        fill: #e3b071;
      }

      .cls-10 {
        fill: #aa7243;
      }
    </style>
  </defs>
  <g id="Group_5" data-name="Group 5" transform="translate(-604.62 -1179)">
    <circle id="Ellipse_60" data-name="Ellipse 60" class="cls-1" cx="92.194" cy="92.194" r="92.194" transform="translate(604.62 1179)"/>
    <path id="Path_572" data-name="Path 572" class="cls-2" d="M65.752,37.3l-15,94.961-3.644.057L62.152,36.924Z" transform="translate(618.628 1188.367)"/>
    <path id="Path_573" data-name="Path 573" class="cls-3" d="M76.472,20.023c28.158,2.92,46.593,36.754,46.593,36.754-7.964-5.814-23.413-7.418-31.778-3.3a58.417,58.417,0,0,0-17.911-5.056,46.6,46.6,0,0,0-17.33,1.4c-6.535-5.667-21.525-7.676-31.362-3.255C24.684,46.569,48.317,17.1,76.472,20.023Z" transform="translate(608.41 1180.572)"/>
    <path id="Path_574" data-name="Path 574" class="cls-4" d="M77.1,20.036c28.973,3,47.826,38.971,47.826,38.971-8.175-6.163-24.074-7.81-32.7-3.392A58.209,58.209,0,0,0,73.812,50.3a46.459,46.459,0,0,0-17.845,1.555c-6.706-6.011-22.13-8.1-32.271-3.35C23.695,48.5,48.133,17.028,77.1,20.036Z" transform="translate(607.959 1180.579)"/>
    <path id="Path_575" data-name="Path 575" class="cls-5" d="M66.654,19.959c9.456,0,14.815,33.455,14.815,33.455a58.417,58.417,0,0,0-17.911-5.056,46.6,46.6,0,0,0-17.33,1.4S57.2,19.959,66.654,19.959Z" transform="translate(618.227 1180.636)"/>
    <ellipse id="Ellipse_61" data-name="Ellipse 61" class="cls-6" cx="2.332" cy="1.491" rx="2.332" ry="1.491" transform="translate(682.679 1199.247) rotate(5.912)"/>
    <path id="Path_576" data-name="Path 576" class="cls-7" d="M70.488,105.491c0,2.342-1.9,1.981-4.242,1.981H41.362c-2.342,0-4.242.361-4.242-1.981V103.23a4.243,4.243,0,0,1,4.242-4.242H66.247a4.243,4.243,0,0,1,4.242,4.242v2.261Z" transform="translate(614.077 1216.65)"/>
    <path id="Path_577" data-name="Path 577" class="cls-8" d="M85.768,107.673a1.183,1.183,0,0,1-1.138-.859L78.291,84.749A1.185,1.185,0,1,1,80.57,84.1l6.338,22.066a1.186,1.186,0,0,1-.812,1.467A1.169,1.169,0,0,1,85.768,107.673Z" transform="translate(632.818 1209.471)"/>
    <path id="Path_578" data-name="Path 578" class="cls-9" d="M60.448,136.8a1.162,1.162,0,0,1-.649-.2,1.185,1.185,0,0,1-.339-1.641l47.923-72.938a1.186,1.186,0,1,1,1.981,1.3L61.44,136.27A1.186,1.186,0,0,1,60.448,136.8Z" transform="translate(624.168 1199.564)"/>
    <path id="Path_579" data-name="Path 579" class="cls-8" d="M112.682,126.436a1.184,1.184,0,0,1-1.13-.83L92.047,63.25a1.185,1.185,0,0,1,2.262-.709l19.5,62.353a1.186,1.186,0,0,1-.777,1.486A1.157,1.157,0,0,1,112.682,126.436Z" transform="translate(639.082 1199.662)"/>
    <path id="Path_580" data-name="Path 580" class="cls-8" d="M120.09,110.486a1.228,1.228,0,0,1-.3-.036l-36.848-9.542a1.185,1.185,0,1,1,.594-2.294l36.848,9.542a1.184,1.184,0,0,1-.3,2.331Z" transform="translate(634.554 1216.463)"/>
    <path id="Path_581" data-name="Path 581" class="cls-10" d="M117.459,109.348a1.132,1.132,0,0,1-.259-.029L82.44,101.549a1.184,1.184,0,1,1,.517-2.312L117.716,107a1.186,1.186,0,0,1-.258,2.344Z" transform="translate(634.307 1216.75)"/>
    <path id="Path_582" data-name="Path 582" class="cls-11" d="M97.661,122.244a1.24,1.24,0,0,1-.3-.036l-36.848-9.542a1.185,1.185,0,1,1,.594-2.294l36.848,9.542a1.184,1.184,0,0,1-.3,2.331Z" transform="translate(624.333 1221.821)"/>
    <path id="Path_583" data-name="Path 583" class="cls-11" d="M94.862,104.62a1.159,1.159,0,0,1-.288-.036L60.343,96.025a1.184,1.184,0,1,1,.575-2.3l34.231,8.558a1.184,1.184,0,0,1-.287,2.333Z" transform="translate(624.25 1214.237)"/>
    <path id="Path_584" data-name="Path 584" class="cls-12" d="M106.121,63.664C96.013,106.414,76.5,110.085,66.749,108.97L60.9,107.508l-.592,2.368,30.743,7.7,1.448-2.172,20.144,4.674c22.523-6.008,27.056-52.468,27.056-52.468Z" transform="translate(624.641 1200.553)"/>
    <path id="Path_585" data-name="Path 585" class="cls-13" d="M78.122,115.273l4.805,1.316,1.448-2.172,20.144,4.674c22.523-6.008,27.056-52.468,27.056-52.468l-7.437-.788C123.148,125.347,78.122,115.273,78.122,115.273Z" transform="translate(632.761 1201.543)"/>
    <path id="Path_586" data-name="Path 586" class="cls-13" d="M106.121,63.664C96.013,106.414,76.5,110.085,66.749,108.97L60.9,107.508l-.592,2.368,7.373,1.777s32.679,8.644,45.028-47.2Z" transform="translate(624.641 1200.553)"/>
    <path id="Path_587" data-name="Path 587" class="cls-9" d="M85.049,145.507a1.185,1.185,0,0,1-1.028-1.773l44.764-78.208a1.185,1.185,0,0,1,2.057,1.176L86.078,144.91A1.18,1.18,0,0,1,85.049,145.507Z" transform="translate(635.378 1201.13)"/>
    <path id="Path_588" data-name="Path 588" class="cls-13" d="M114.807,64.795l6.714.725s-2.5,50.819-44.9,48.977l-6.057-1.447S110.265,113.576,114.807,64.795Z" transform="translate(629.319 1201.068)"/>
  </g>
</svg>
