<svg xmlns="http://www.w3.org/2000/svg" viewBox="0 0 184.388 184.388">
  <defs>
    <style>
      .cls-1 {
        fill: #344e5d;
      }

      .cls-2 {
        fill: #ead03a;
      }

      .cls-3 {
        fill: #f8e04e;
      }

      .cls-4 {
        fill: #5e5f5e;
      }

      .cls-5 {
        fill: #e9d227;
      }

      .cls-6 {
        fill: #d0d1d1;
      }

      .cls-7 {
        fill: #e9db31;
      }

      .cls-8 {
        fill: #e0c422;
      }

      .cls-9 {
        fill: #fff;
      }

      .cls-10 {
        fill: #b1d4d7;
      }

      .cls-11 {
        fill: #d3e0e1;
      }
    </style>
  </defs>
  <g id="Group_6" data-name="Group 6" transform="translate(-592.465 -1657)">
    <circle id="Ellipse_47" data-name="Ellipse 47" class="cls-1" cx="92.194" cy="92.194" r="92.194" transform="translate(592.465 1657)"/>
    <path id="Path_461" data-name="Path 461" class="cls-2" d="M79.806,28.085c0,1.333-1.08,1.38-2.412,1.38H62.016c-1.334,0-2.412-.047-2.412-1.38V22.027a2.412,2.412,0,0,1,2.412-2.414H77.392A2.413,2.413,0,0,1,79.8,22.027v6.058Z" transform="translate(612.349 1687.477)"/>
    <path id="Path_462" data-name="Path 462" class="cls-3" d="M64.68,29.465H62.016c-1.334,0-2.412-.047-2.412-1.38V22.027a2.412,2.412,0,0,1,2.412-2.414H77.392A2.413,2.413,0,0,1,79.8,22.027Z" transform="translate(612.349 1687.477)"/>
    <path id="Path_463" data-name="Path 463" d="M64.208,25.65V22.788H63.062v-.581H66.13v.581H64.988V25.65Z" transform="translate(612.561 1687.636)"/>
    <path id="Path_464" data-name="Path 464" d="M69.6,25.65h-.846l-.338-.783H66.872l-.318.783h-.827l1.5-3.443h.825Zm-1.435-1.364-.533-1.277-.521,1.277Z" transform="translate(612.725 1687.636)"/>
    <path id="Path_465" data-name="Path 465" d="M69.7,25.65l1.32-1.8-1.2-1.646h.912l.774,1.107.759-1.107h.905l-1.2,1.673,1.317,1.77h-.939L71.5,24.459l-.862,1.191H69.7Z" transform="translate(612.969 1687.636)"/>
    <path id="Path_466" data-name="Path 466" d="M73.934,25.65V22.207h.779V25.65Z" transform="translate(613.228 1687.636)"/>
    <path id="Path_467" data-name="Path 467" class="cls-4" d="M37.3,70.541a7.29,7.29,0,0,0-7.291,7.291V93.988c0,4.027,3.264,5.842,7.291,5.842s7.289-1.815,7.289-5.842V77.832A7.289,7.289,0,0,0,37.3,70.541Z" transform="translate(610.533 1690.602)"/>
    <path id="Path_468" data-name="Path 468" class="cls-4" d="M102.9,70.541a7.289,7.289,0,0,0-7.289,7.291V93.988c0,4.027,3.263,5.842,7.289,5.842s7.289-1.815,7.289-5.842V77.832A7.289,7.289,0,0,0,102.9,70.541Z" transform="translate(614.558 1690.602)"/>
    <path id="Path_469" data-name="Path 469" class="cls-5" d="M113.3,55.346c-4.618-12.261-6.984-26.941-15.745-26.941,0,0-15.626-1.181-25.009-1.181-8.843,0-25.03,1.181-25.03,1.181-9.4,0-11.541,14.773-15.979,27.032C24.824,58.34,19.31,66.354,20.118,72.8,21.17,81.208,22.031,98.81,34.038,98.81h77.009c12.007,0,13.493-21.279,13.887-26.008S120.134,58.2,113.3,55.346Z" transform="translate(609.921 1687.944)"/>
    <path id="Path_470" data-name="Path 470" class="cls-6" d="M26.545,92.009a9.648,9.648,0,0,0,7.1,2.883H110.65a9.169,9.169,0,0,0,6.745-2.933c.073-.075-23.361-.906-46.317-.876C48.577,91.114,26.545,92.009,26.545,92.009Z" transform="translate(610.32 1691.863)"/>
    <path id="Path_471" data-name="Path 471" class="cls-7" d="M113.314,55.346C108.7,43.085,106.33,28.405,97.568,28.405c0,0-15.626-1.181-25.009-1.181-8.843,0-25.03,1.181-25.03,1.181-9.4,0-11.541,14.773-15.979,27.032-6.717,2.9-13,11.06-11.423,17.365s104.423,4.728,104.817,0S120.144,58.2,113.314,55.346Z" transform="translate(609.911 1687.944)"/>
    <path id="Path_472" data-name="Path 472" class="cls-5" d="M112.659,55.346c-4.618-12.261-6.984-26.941-15.745-26.941,0,0-15.626-1.181-25.009-1.181-8.843,0-25.03,1.181-25.03,1.181-9.4,0-11.541,14.773-15.979,27.032C24.178,58.34,119.489,58.2,112.659,55.346Z" transform="translate(610.566 1687.944)"/>
    <path id="Path_473" data-name="Path 473" class="cls-8" d="M100.754,82.761a5.815,5.815,0,0,1-5.714,5.911H47.36a5.815,5.815,0,0,1-5.714-5.911h0a5.815,5.815,0,0,1,5.714-5.91H95.04a5.815,5.815,0,0,1,5.714,5.91Z" transform="translate(611.247 1690.99)"/>
    <path id="Path_474" data-name="Path 474" class="cls-9" d="M82.832,82.374a2.438,2.438,0,0,1-2.439,2.439H60.048a2.438,2.438,0,0,1-2.439-2.439h0a2.438,2.438,0,0,1,2.439-2.438H80.393a2.439,2.439,0,0,1,2.439,2.438Z" transform="translate(612.226 1691.179)"/>
    <path id="Path_475" data-name="Path 475" class="cls-5" d="M99.337,81.774c0,3.59,7.487,4.095,11.079,4.095a6.5,6.5,0,0,0,6.5-6.5c0-3.591-2.91-4.992-6.5-4.992S99.337,78.184,99.337,81.774Z" transform="translate(614.787 1690.838)"/>
    <path id="Path_476" data-name="Path 476" class="cls-9" d="M100.563,81.356c0,3.06,6.379,3.488,9.438,3.488a5.538,5.538,0,0,0,5.539-5.538c0-3.058-2.48-3.941-5.539-3.941S100.563,78.3,100.563,81.356Z" transform="translate(614.862 1690.898)"/>
    <path id="Path_477" data-name="Path 477" class="cls-5" d="M41.178,81.774c0,3.59-7.488,4.095-11.079,4.095a6.5,6.5,0,0,1-6.5-6.5c0-3.591,2.91-4.992,6.5-4.992S41.178,78.184,41.178,81.774Z" transform="translate(610.139 1690.838)"/>
    <path id="Path_478" data-name="Path 478" class="cls-9" d="M39.8,81.356c0,3.06-6.379,3.488-9.438,3.488a5.537,5.537,0,0,1-5.538-5.538c0-3.058,2.479-3.941,5.538-3.941S39.8,78.3,39.8,81.356Z" transform="translate(610.215 1690.898)"/>
    <path id="Path_479" data-name="Path 479" class="cls-10" d="M49.846,30.533s14.054-.965,21.73-.965c8.146,0,21.708.965,21.708.965,7.719,0,9.876,11.812,13.851,21.839,1.9,4.8-73.132,4.785-71.3-.028C39.662,42.321,41.6,30.533,49.846,30.533Z" transform="translate(610.888 1688.088)"/>
    <path id="Path_480" data-name="Path 480" class="cls-11" d="M49.846,30.533s14.054-.965,21.73-.965c3.314,0,7.523.159,11.351.35L63.011,55.872c-15.042-.321-27.947-1.5-27.174-3.528C39.662,42.321,41.6,30.533,49.846,30.533Z" transform="translate(610.888 1688.088)"/>
  </g>
</svg>
